<svg xmlns="http://www.w3.org/2000/svg" xmlns:xlink="http://www.w3.org/1999/xlink" viewBox="0 0 94.05 283.34"><defs><style>.cls-1{isolation:isolate;}.cls-2{fill:#229bff;}.cls-3{fill:#11103d;}.cls-4{fill:#142163;}.cls-5{fill:#873f26;}.cls-6{fill:#efcbc5;}.cls-7{fill:#006ced;}.cls-8{fill:#24272b;}.cls-9{fill:#e2b7ac;}.cls-10{opacity:0.9;}.cls-11,.cls-15{fill:#fff;}.cls-12{fill:#ffae00;}.cls-13{opacity:0.7;}.cls-14{fill:#af8f4e;}.cls-15{opacity:0.69;}.cls-16,.cls-17{mix-blend-mode:multiply;}.cls-16{fill:url(#linear-gradient);}.cls-17{fill:url(#linear-gradient-2);}.cls-18{fill:#eac839;}.cls-19{fill:#ffdd4d;}</style><linearGradient id="linear-gradient" x1="-1108.34" y1="83.84" x2="-1110.73" y2="61.54" gradientTransform="translate(1157.74)" gradientUnits="userSpaceOnUse"><stop offset="0" stop-color="#fff"/><stop offset="0.64" stop-color="#c6c0b9"/></linearGradient><linearGradient id="linear-gradient-2" x1="-1084.97" y1="81.38" x2="-1087.23" y2="60.35" xlink:href="#linear-gradient"/></defs><title>运动2</title><g class="cls-1"><g id="图层_2" data-name="图层 2"><g id="Layer_3" data-name="Layer 3"><path class="cls-2" d="M74.2,59.47c3.22,4.8,9.28,15.11,9.28,26.18,0,7.82-2.84,9.4-5.68,9.4S63,91.18,59.89,87s-4-25.16-1.71-27.65,12-5.07,12-5.07Z"/><path d="M61.61,261.25c-1,4.78-1.2,11.72,1.05,12.12,8.15,1.41,6.11-2,12.19.94,4.58,2.21,16.37,2.31,18.06.89,1.49-1.23,2.6-6.93-4-7.71s-10.31-6.27-12.53-9.69a12.06,12.06,0,0,0-6.5-4.48L63,254.59Z"/><path class="cls-3" d="M52.18,175.26c5.26,18.58,15.79,30.1,14.48,32.66s-10.2,49.15-6.25,57.48a80.35,80.35,0,0,0,19.42-4.32l-1.32-75.57L58.1,140Z"/><path d="M27.25,261.75,43,260.26s1,11.1,11.47,14.05c3.51,1,4.21,5.73-.18,7.76s-14.35,1.8-18.62-2S31.27,279.67,28,278s-1.6-8.61-1.5-12.84Z"/><path class="cls-3" d="M31.66,109.45c-11.37,12.7-12,25.47-7.77,37.31,4.65,12.9-1.65,48.41-4,63.4-6.12,39.88,2.47,62.2,2.47,62.2s5.68.27,20.69-2.57L48,215.19c.27-3,5.3-48.85,11.94-64.61,3.2-7.59.9-27.54-.06-33.48C59.22,113,31.66,109.45,31.66,109.45Z"/><path class="cls-4" d="M52.18,210.48c3-8.37,6.06-53.62,9.25-61.2s.66-29.43-.3-35.37c-.21-1.23-5.67-2.37-9.94-2.61L46,150.69C39.23,191.93,29.06,244,34.5,270.92c3.19.17,9.89-1.17,13.82-1.92C48.32,269,44.28,232.9,52.18,210.48Z"/><path class="cls-4" d="M73.42,113.76c0,3.85-.92,13.14.81,17,1,2.11,14.81,60.52,16.12,72,.65,4.24-4.77,57.88-4.77,60.44A65.94,65.94,0,0,1,71,264s6.67-53.8,6.67-56.44c0-8.33-19.59-52.76-19.59-59.16s-3.29-35.22-3.29-35.22Z"/><path class="cls-5" d="M31.56,25.58c-.62,4.35-2.87,16.62-1.15,18.71s9.76-1.12,10.21-6.48S31.56,25.58,31.56,25.58Z"/><path class="cls-5" d="M33,34.59c-3,3.49-7.7,13.59-7.3,17.62s11.76-6.87,10.58-12.87S33,34.59,33,34.59Z"/><path class="cls-6" d="M60.74,32.12c-5.35,3.46-10.7,12-4.55,20.61.73,1,6.18,9,7,10.19,2.2,3.35-14,2-19.54-1.75C38.71,57.89,32,49.1,28.66,47.82c13.16-6.41,8.73-21.4,8.06-29.78S60.74,32.12,60.74,32.12Z"/><path class="cls-6" d="M37.71,14.7C41.37,3.38,50.51.54,59.76,3.36s12.07,9.4,8.43,20.72a63.21,63.21,0,0,1-4.41,9.77c-1.9,3.32-4.53,11.94-13.07,8.66C41.7,39,34.08,26,37.71,14.7Z"/><path class="cls-5" d="M57.42,17.2l12.46-1.1c1.65-2-.18-12.76-14.56-15.52C42.13-1.95,33.61,4,31.12,15.87c-1.56,7.5,1.46,19.66,1.46,19.66s8.63-4.26,7.36-7.16c-.77-1.78-2.26-8.28,2.14-8.14,1.32,0,2.8,2.11,2.8,2.11Z"/><path class="cls-2" d="M53.85,47.83c-1-2.69,3.5-.06,6.89,4.46,5.38,7.18,11.17,19,11.92,20.57,2.47,5.28.74,9.14.74,15.37s2.59,21.56,1.43,25.52-6.24,3.88-6.24,3.88l-10.47-.57s-.86-57.21-2.62-58.91A32,32,0,0,0,53.85,47.83Z"/><path class="cls-7" d="M50.46,52.7c.7,0,5,2.84,5.92,4.56,7,13.38,8.37,14.21,9.49,19.17,2.22,9.89,2.93,35.44,1.45,40.72-.59,2.14-35.86-3.69-35.86-3.69s-9.38-3.84-8.39-10.09S25,95.08,23,80.28c-.92-6.82-11.35-23.95-7.34-26.15,6.17-3.36,18.1-12.09,18.1-12.09S39.84,52.33,50.46,52.7Z"/><path class="cls-2" d="M34.74,39S47,52.22,51.2,52.22c0,3.84-5.43,6.48-5.43,6.48l-16-14.41Z"/><path class="cls-2" d="M57.62,55.58c.24-1.92-3.61-6.75-4-8.41a8.26,8.26,0,0,1-.06-2.82s9.13,6.06,11.11,7.74C60.39,51.2,57.62,55.58,57.62,55.58Z"/><path d="M43.61,117.61c-.89-3-6.83-3.93-16-3.93-3.87,0-4.32,5.16-3.33,11.23.31,1.9,3.64,3.28,3.11,5.24-2.25,8.35-2.64,19.72,1.81,20.43C38.45,152.07,43.61,117.61,43.61,117.61Z"/><path d="M59.1,129c-.07.67-1,1.18-2,1.16l-5.31-.19c-1,0-1.83-.61-1.77-1.28l1-9.86c.06-.66,1-1.19,2-1.15l5.32.19c1,0,1.82.61,1.75,1.28Z"/><path class="cls-8" d="M59.06,128.92l1-9.86c.07-.67-.73-1.23-1.77-1.27l-1.2,0L55.79,130l1.29,0C58.1,130.11,59,129.6,59.06,128.92Z"/><path d="M51.76,134.07a1.86,1.86,0,0,1-2,1.7l-5.31-.36a1.85,1.85,0,0,1-1.76-1.94l1.06-14.9a1.84,1.84,0,0,1,2-1.7l5.32.34a1.86,1.86,0,0,1,1.74,2Z"/><path class="cls-8" d="M51.73,134l1.06-14.9a1.85,1.85,0,0,0-1.75-2l-1.19-.08-1.39,18.56,1.28.07A1.86,1.86,0,0,0,51.73,134Z"/><path class="cls-9" d="M25.3,104.35c2.71,1.4,12.35,6.79,14.78,6.65A12.73,12.73,0,0,1,48,112.93c1.55,1.07,3,1.93,2.6,2.13a5.26,5.26,0,0,1-4.1-.07,17.36,17.36,0,0,0,2.87,4.86c1.8,2.16,2.13,3.86.14,3.92-.62,0-.48,1.93-3.15,1.47.07,1.06-2.53,1.66-3.21,1.26s-1.44,1.27-3.49-.33a69.92,69.92,0,0,1-7.7-8.74c-1.47-2.15-14.85-3.58-17.25-4.77S25.3,104.35,25.3,104.35Z"/><path class="cls-2" d="M21.75,55c-3.62-1.81-7.57-2.08-12,6.08C4.8,70.16-1.57,101,.35,105.77s19.09,21.46,26.49,14.73c2-4.21,9.66-11.28,9.66-11.28S20.18,100.06,21.09,96.4s6-11.13,7.16-17.29S27.5,57.9,21.75,55Z"/><polygon class="cls-2" points="35.57 108.82 39.6 110.9 31.66 122.97 23.8 117.54 35.57 108.82"/><g class="cls-10"><path class="cls-11" d="M9.68,66.57c3.75-4.14,13-2.18,13.15,4.77l-5.18,9.48-5.94.77L7.25,76.9Z"/><path class="cls-12" d="M10.35,67.2c3.18-3.51,11.12-1.43,11.2,4.08l-4.45,8-5,.66L8.29,76Z"/><path class="cls-4" d="M17.22,76.18c-.46,1-2.32,1.22-4.15.62h0C11.24,76.2,10,75,10.17,73.94l.76-3.55c.29-1.35,2.4-2,4.73-1.29h0c2.36.7,3.77,2.4,3.16,3.7Z"/><g class="cls-13"><polygon class="cls-14" points="11.71 72.29 13.39 72.75 13.81 71.7 15.79 72.4 15.59 73.54 16.94 74.23 16.37 75.74 11.23 73.98 11.71 72.29"/><path class="cls-14" d="M13.87,71.57l1.94.67s.27-.24.21-.41a4.35,4.35,0,0,0-.59-1L15,70.64A5.2,5.2,0,0,0,14,71,.5.5,0,0,0,13.87,71.57Z"/><polygon class="cls-14" points="16.8 73.59 16.52 74.6 15.91 74.35 16.31 73.35 16.8 73.59"/><polygon class="cls-14" points="12.84 72.16 12.55 73.17 11.94 72.92 12.34 71.92 12.84 72.16"/></g><path class="cls-15" d="M11.27,68.73c1.35-1.12,3.51-.88,4.68-.46a7,7,0,0,1,3.66,3c.23.11.91-.36.87-.75-.1-.81-2-2.72-4.33-3.42-2-.61-5,0-5,.78S11.27,68.73,11.27,68.73Z"/></g><path class="cls-2" d="M57.58,83.89a3.86,3.86,0,0,1-3.16,4.49L48,89.57a3.94,3.94,0,0,1-4.61-3.06l-1.83-9.44a3.85,3.85,0,0,1,3.15-4.49l6.46-1.18a3.94,3.94,0,0,1,4.61,3.06Z"/><polygon class="cls-16" points="55.76 73.59 43.35 86.5 40.83 73.59 51.94 71.91 55.76 73.59"/><path class="cls-2" d="M38.85,70.71c2-.64,13.82-3,14.81-2.4s5.92,3.68,4,5-7.58.64-9.88,1.6-5.76,3-7.4.8A8.43,8.43,0,0,1,38.85,70.71Z"/><path class="cls-7" d="M75.71,82.88c.17,1.8-.63,2.88-1.81,3.2l-2.52.49c-1.32.36-.44-5.46-2.91-12.5l.41-1.6c-.27-2.11-.84-1.91.57-2l4-.38c1.26-.12.88,1.46,1.07,3.39Z"/><polygon class="cls-17" points="74.59 72.98 70.53 83.52 68.9 70.8 72.43 71.05 74.59 72.98"/><path class="cls-7" d="M65.51,67.8c1.38-.37,7.42-.63,8,.11s3.21,4,2.12,5-2.81-.57-4.23.11-2.46,2.51-3.57.14S65.51,67.8,65.51,67.8Z"/><path class="cls-18" d="M67.53,62.19c-.21-.25-.35-.7-.7-1.21a4.4,4.4,0,0,0-3.66-1.44c-2,.24-2.11,1.64-1.75,2.22s.78.78.9,1.07c.47,1.08.35,2.26,2.12,4.32s3.5,1.46,4.22,1.67a4.83,4.83,0,0,1,.6.25l0,0v0h0l0,0a1.64,1.64,0,0,1,.16-.43c.26-.45,2-.8,1.1-2.77S68.35,63.13,67.53,62.19Z"/><path class="cls-19" d="M70.56,65.86c-.94-2-2.22-2.72-3-3.67-.21-.25-.35-.7-.7-1.21a4.4,4.4,0,0,0-3.66-1.44h0L69.3,69a1.34,1.34,0,0,1,.15-.41C69.72,68.17,71.48,67.83,70.56,65.86Z"/><path class="cls-19" d="M69.34,65c.35.56.32,1.08-.07,1.16l-3.33.71a1.8,1.8,0,0,1-1.51-.91h0c-.4-.6-.36-1.16.09-1.24L68,64.09a1.68,1.68,0,0,1,1.37.89Z"/><path class="cls-18" d="M66.3,64.39,68,64.1a1.65,1.65,0,0,1,1.37.89h0c.36.56.32,1.08-.06,1.16l-1.61.34Z"/><path class="cls-2" d="M32.11,44C31,46.22,20.92,51.66,20.43,52.46s3.46,1.27,5.1,3.68c4.77-2.4,12.83-8,11.85-9.44S32.11,44,32.11,44Z"/><path d="M63.41,45.64c.61.62.84,1.33.54,1.62h0c-.29.29-1,0-1.62-.61L43.89,27.92c-.6-.61-.84-1.33-.55-1.62h0c.3-.28,1,0,1.64.6Z"/><path d="M42.14,26.24A.95.95,0,0,1,44,26.19a.95.95,0,0,1-1.89.05Z"/><path d="M52.57,36.91l5.14,6.67s2.42-1.27,2.49-2.38l-6.33-5.44Z"/><path d="M74.81,53.79a2.55,2.55,0,0,1-.2,3.68l-5,4.31a2.72,2.72,0,0,1-3.78-.2L54.15,49.21c-1-1.07-1-2.46-.1-4L57.24,42s3.88-2.11,6.65.22Z"/><path class="cls-8" d="M70.68,55.43c.7.75.83,1.73.3,2.19l-2.89,2.53c-.53.47-1.51.24-2.21-.51L55.78,49.25c-.69-.74-.82-1.74-.29-2.2l2.89-2.53c.52-.47,1.53-.24,2.21.5Z"/><path d="M64.11,54.51c.33.34.41.77.19,1l-.32.29c-.22.18-.66.05-1-.3L62.53,55c-.31-.34-.4-.78-.19-1l.32-.28c.22-.18.65-.06,1,.28Z"/><path d="M65.38,53.4c.32.34.41.78.2,1l-.33.29c-.22.18-.65.05-1-.3l-.48-.52c-.31-.34-.4-.78-.19-1l.32-.29c.21-.19.66-.06,1,.29Z"/><path d="M66.64,52.29c.32.35.41.78.2,1l-.33.28c-.22.19-.65.08-1-.28l-.48-.51c-.32-.35-.4-.78-.19-1l.32-.29c.22-.19.66-.06,1,.29Z"/><path d="M66.81,57.42c.32.34.4.77.2,1l-.33.28c-.21.19-.65.06-1-.28l-.48-.52c-.32-.35-.41-.78-.19-1l.33-.28c.21-.2.65-.06,1,.28Z"/><path d="M68.08,56.31c.32.35.4.78.19,1l-.32.28c-.21.19-.66.06-1-.28l-.48-.52c-.32-.35-.41-.79-.19-1l.32-.28c.23-.2.65-.07,1,.28Z"/><path d="M69.34,55.2c.32.35.41.78.19,1l-.33.28c-.21.18-.64.06-1-.29l-.49-.52c-.32-.35-.4-.78-.18-1l.31-.28c.22-.19.65-.07,1,.29Z"/><path class="cls-9" d="M64.91,42.24c-1.33,1.08-3.36,5.63-1.42,5.16C65,47,67,46.11,67.69,44.16S64.91,42.24,64.91,42.24Z"/><path class="cls-9" d="M66.81,44c1.33-.37,3,.74,2.47,1.84S67.22,48,66.4,49c-1.35,1.73-3,2.21-2.91.85.12-2.25.47-2.58,1.61-3.5A6.59,6.59,0,0,0,66.81,44Z"/><path class="cls-9" d="M69.27,45.83c1,.65,2.27,1.66,1.61,2.39s-1.75,1.24-2.7,2.07-2.55,1.89-2.84,1.06c-.21-.63.05-1.94,1.76-3.32A9.66,9.66,0,0,0,69.27,45.83Z"/><path class="cls-9" d="M70.6,48.28c.42.37,1.18,1.33.61,1.89A11.38,11.38,0,0,1,68,52.05c-.52,0-.95,0-.24-1.06A17.64,17.64,0,0,1,70.6,48.28Z"/></g></g></g></svg>