<svg xmlns="http://www.w3.org/2000/svg" xmlns:xlink="http://www.w3.org/1999/xlink" viewBox="0 0 47 101"><defs><style>.cls-1{fill:#e6e6e6;stroke:#e6e6e6;}.cls-1,.cls-2,.cls-3{stroke-miterlimit:10;}.cls-2{stroke:#b3b3b3;stroke-width:0.75px;fill:url(#linear-gradient);}.cls-3{stroke:#ccc;fill:url(#linear-gradient-2);}.cls-4{fill:url(#linear-gradient-3);}.cls-5{opacity:0.8;}.cls-6{fill:url(#linear-gradient-4);}.cls-7{fill:url(#linear-gradient-5);}.cls-8{fill:url(#linear-gradient-6);}.cls-9{fill:#ccc;}</style><linearGradient id="linear-gradient" x1="23.5" y1="3.5" x2="23.5" y2="97.5" gradientUnits="userSpaceOnUse"><stop offset="0" stop-color="#e15554"/><stop offset="1" stop-color="#f88"/></linearGradient><linearGradient id="linear-gradient-2" x1="108.4" y1="-688.27" x2="107.74" y2="-646.28" gradientTransform="matrix(1, 0, 0, 1, -84.51, 692.1)" gradientUnits="userSpaceOnUse"><stop offset="0" stop-color="#fff"/><stop offset="1" stop-color="#adaaaa"/></linearGradient><linearGradient id="linear-gradient-3" x1="108.37" y1="-686.67" x2="107.77" y2="-647.88" gradientTransform="matrix(1, 0, 0, 1, -84.51, 692.1)" gradientUnits="userSpaceOnUse"><stop offset="0" stop-color="#ccc"/><stop offset="0.51" stop-color="#e8e8e8"/><stop offset="1" stop-color="#fff"/></linearGradient><linearGradient id="linear-gradient-4" x1="18.06" y1="80.05" x2="18.06" y2="64.35" gradientUnits="userSpaceOnUse"><stop offset="0" stop-color="#9c2521"/><stop offset="1" stop-color="#892020"/></linearGradient><linearGradient id="linear-gradient-5" x1="26.03" y1="79.77" x2="26.03" y2="64.63" xlink:href="#linear-gradient-4"/><linearGradient id="linear-gradient-6" x1="30.78" y1="79.77" x2="30.78" y2="64.63" xlink:href="#linear-gradient-4"/></defs><title>关1_1</title><g id="图层_2" data-name="图层 2"><g id="Layer_8" data-name="Layer 8"><path class="cls-1" d="M46.5,26.4C46.5,12.1,36.2.5,23.5.5h0C10.8.5.5,12.1.5,26.4V74.6c0,14.31,10.3,25.9,23,25.9h0c12.7,0,23-11.6,23-25.9Z"/><path class="cls-2" d="M23.5,97.5c-11.58,0-21-9.65-21-21.51V25c0-11.86,9.42-21.5,21-21.5s21,9.65,21,21.5V76C44.5,87.85,35.08,97.5,23.5,97.5Z"/></g><g id="Layer_12" data-name="Layer 12"><circle class="cls-3" cx="23.59" cy="24.81" r="21" transform="translate(-0.39 0.37) rotate(-0.9)"/><circle class="cls-4" cx="23.59" cy="24.81" r="19.4" transform="translate(-0.39 0.37) rotate(-0.9)"/></g><g id="Layer_14" data-name="Layer 14"><g class="cls-5"><path class="cls-6" d="M13.78,66.54a3.67,3.67,0,0,1,1.72-1.67,6.1,6.1,0,0,1,2.6-.52,6.11,6.11,0,0,1,2.6.51,3.56,3.56,0,0,1,1.67,1.66,6.62,6.62,0,0,1,.6,3v5.41a6.49,6.49,0,0,1-.59,3,3.45,3.45,0,0,1-1.67,1.62,6.34,6.34,0,0,1-2.6.48q-4.93,0-4.93-5.1V69.53A6.35,6.35,0,0,1,13.78,66.54Zm4.32,11.2a1.71,1.71,0,0,0,1.43-.62A2.86,2.86,0,0,0,20,75.31V69.24a3.15,3.15,0,0,0-.5-1.9,1.66,1.66,0,0,0-1.43-.68q-2,0-2,2.54v6.11Q16.1,77.74,18.09,77.74Z"/><path class="cls-7" d="M23.61,68.32H24.7V67.16a3.79,3.79,0,0,1,.2-1.3,1.7,1.7,0,0,1,.84-.89,3.88,3.88,0,0,1,1.82-.35h.79V66.7a1.91,1.91,0,0,0-.86.13q-.21.13-.21.57v.93h1.18v1.89H27.28v9.56H24.7V70.21H23.61Z"/><path class="cls-8" d="M28.35,68.32h1.09V67.16a3.8,3.8,0,0,1,.2-1.3,1.7,1.7,0,0,1,.84-.89,3.88,3.88,0,0,1,1.82-.35h.79V66.7a1.91,1.91,0,0,0-.86.13c-.14.08-.21.27-.21.57v.93H33.2v1.89H32v9.56H29.44V70.21H28.35Z"/></g></g><g id="Layer_10" data-name="Layer 10"><circle class="cls-9" cx="23.87" cy="23.28" r="2.53" transform="translate(-0.36 0.38) rotate(-0.89)"/><circle class="cls-9" cx="30.45" cy="23.28" r="2.53" transform="translate(-0.36 0.48) rotate(-0.89)"/><circle class="cls-9" cx="23.71" cy="30.85" r="2.53" transform="translate(-0.48 0.37) rotate(-0.89)"/><circle class="cls-9" cx="16.87" cy="23.28" r="2.53" transform="translate(-0.36 0.27) rotate(-0.89)"/><circle class="cls-9" cx="23.87" cy="16.28" r="2.53" transform="translate(-0.25 0.37) rotate(-0.89)"/><circle class="cls-9" cx="30.45" cy="16.28" r="2.53" transform="translate(-0.25 0.48) rotate(-0.89)"/><circle class="cls-9" cx="16.87" cy="16.28" r="2.53" transform="translate(-0.25 0.27) rotate(-0.89)"/><circle class="cls-9" cx="16.71" cy="30.85" r="2.53" transform="translate(-0.48 0.26) rotate(-0.89)"/><circle class="cls-9" cx="30.3" cy="30.85" r="2.53" transform="translate(-0.48 0.48) rotate(-0.89)"/></g></g></svg>