<svg xmlns="http://www.w3.org/2000/svg" viewBox="0 0 115.25 44.25"><defs><style>.cls-1{fill:#3ac1ba;stroke:#333;stroke-miterlimit:10;stroke-width:0.25px;}.cls-2{fill:#666;}.cls-3{fill:#215446;}.cls-4{opacity:0.8;}.cls-5{fill:#4d4d4d;}</style></defs><title>开3</title><g id="图层_2" data-name="图层 2"><g id="Layer_12" data-name="Layer 12"><rect class="cls-1" x="0.13" y="0.13" width="115" height="44"/><rect class="cls-2" x="0.12" y="0.13" width="58" height="44"/></g><g id="Layer_15" data-name="Layer 15"><path class="cls-3" d="M75.77,16.11a3.68,3.68,0,0,1,1.72-1.67,6.88,6.88,0,0,1,5.2,0,3.55,3.55,0,0,1,1.67,1.66,6.61,6.61,0,0,1,.6,3v5.41a6.48,6.48,0,0,1-.59,3,3.45,3.45,0,0,1-1.67,1.62,6.34,6.34,0,0,1-2.6.48q-4.93,0-4.93-5.1V19.11A6.35,6.35,0,0,1,75.77,16.11Zm4.32,11.2a1.71,1.71,0,0,0,1.43-.62A2.86,2.86,0,0,0,82,24.88V18.81a3.16,3.16,0,0,0-.5-1.9,1.66,1.66,0,0,0-1.43-.68q-2,0-2,2.54v6.11Q78.09,27.31,80.09,27.31Z"/><path class="cls-3" d="M86.57,29.35V17.89H89v1a2.46,2.46,0,0,1,.91-.95,2.61,2.61,0,0,1,1.42-.39,2.78,2.78,0,0,1,2.06.8,3.32,3.32,0,0,1,.79,2.43v8.52H91.62V21.12a1.56,1.56,0,0,0-.31-1,1.12,1.12,0,0,0-.9-.36,1.18,1.18,0,0,0-.92.37,1.49,1.49,0,0,0-.34,1v8.23Z"/></g><g id="Layer_14" data-name="Layer 14"><g class="cls-4"><path class="cls-5" d="M20,16.13a3.67,3.67,0,0,1,1.72-1.67,6.1,6.1,0,0,1,2.6-.52,6.11,6.11,0,0,1,2.6.51,3.56,3.56,0,0,1,1.67,1.66,6.62,6.62,0,0,1,.6,3v5.41a6.49,6.49,0,0,1-.59,3,3.45,3.45,0,0,1-1.67,1.62,6.34,6.34,0,0,1-2.6.48q-4.93,0-4.93-5.1V19.13A6.35,6.35,0,0,1,20,16.13Zm4.32,11.2a1.71,1.71,0,0,0,1.43-.62,2.86,2.86,0,0,0,.49-1.81V18.84a3.15,3.15,0,0,0-.5-1.9,1.66,1.66,0,0,0-1.43-.68q-2,0-2,2.54V24.9Q22.33,27.34,24.32,27.34Z"/><path class="cls-5" d="M29.84,17.91h1.09V16.76a3.79,3.79,0,0,1,.2-1.3,1.7,1.7,0,0,1,.84-.89,3.88,3.88,0,0,1,1.82-.35h.79V16.3a1.91,1.91,0,0,0-.86.13q-.21.13-.21.57v.93h1.18v1.89H33.51v9.56H30.93V19.81H29.84Z"/><path class="cls-5" d="M34.58,17.91h1.09V16.76a3.8,3.8,0,0,1,.2-1.3,1.7,1.7,0,0,1,.84-.89,3.88,3.88,0,0,1,1.82-.35h.79V16.3a1.91,1.91,0,0,0-.86.13c-.14.08-.21.27-.21.57v.93h1.18v1.89H38.25v9.56H35.67V19.81H34.58Z"/></g></g></g></svg>