<svg xmlns="http://www.w3.org/2000/svg" xmlns:xlink="http://www.w3.org/1999/xlink" viewBox="0 0 47 101"><defs><style>.cls-1{fill:#e6e6e6;stroke:#e6e6e6;}.cls-1,.cls-2,.cls-4{stroke-miterlimit:10;}.cls-2{stroke:#b3b3b3;stroke-width:0.75px;fill:url(#未命名的渐变_13);}.cls-3{fill:#215446;}.cls-4{stroke:#ccc;fill:url(#linear-gradient);}.cls-5{fill:url(#linear-gradient-2);}.cls-6{fill:#ccc;}</style><linearGradient id="未命名的渐变_13" x1="23.5" y1="97.5" x2="23.5" y2="3.5" gradientUnits="userSpaceOnUse"><stop offset="0" stop-color="#099"/><stop offset="1" stop-color="#3db99c"/></linearGradient><linearGradient id="linear-gradient" x1="107.53" y1="-634.42" x2="106.88" y2="-592.43" gradientTransform="translate(130.82 -535.62) rotate(-180)" gradientUnits="userSpaceOnUse"><stop offset="0" stop-color="#fff"/><stop offset="1" stop-color="#adaaaa"/></linearGradient><linearGradient id="linear-gradient-2" x1="107.51" y1="-632.82" x2="106.9" y2="-594.03" gradientTransform="translate(130.82 -535.62) rotate(-180)" gradientUnits="userSpaceOnUse"><stop offset="0" stop-color="#ccc"/><stop offset="0.51" stop-color="#e8e8e8"/><stop offset="1" stop-color="#fff"/></linearGradient></defs><title>开1_1</title><g id="图层_2" data-name="图层 2"><g id="Layer_8" data-name="Layer 8"><path class="cls-1" d="M.5,74.6c0,14.31,10.3,25.9,23,25.9h0c12.7,0,23-11.6,23-25.9V26.4C46.5,12.1,36.2.5,23.5.5h0C10.8.5.5,12.1.5,26.4Z"/><path class="cls-2" d="M23.5,3.5c11.58,0,21,9.65,21,21.51V76c0,11.86-9.42,21.5-21,21.5S2.5,87.85,2.5,76V25C2.5,13.15,11.92,3.5,23.5,3.5Z"/></g><g id="Layer_15" data-name="Layer 15"><path class="cls-3" d="M14.54,18.51a3.68,3.68,0,0,1,1.72-1.67,6.09,6.09,0,0,1,2.6-.52,6.11,6.11,0,0,1,2.6.51,3.55,3.55,0,0,1,1.67,1.66,6.61,6.61,0,0,1,.6,3v5.41a6.48,6.48,0,0,1-.59,3,3.45,3.45,0,0,1-1.67,1.62,6.34,6.34,0,0,1-2.6.48q-4.93,0-4.93-5.1V21.51A6.35,6.35,0,0,1,14.54,18.51Zm4.32,11.2a1.71,1.71,0,0,0,1.43-.62,2.86,2.86,0,0,0,.49-1.81V21.22a3.16,3.16,0,0,0-.5-1.9,1.66,1.66,0,0,0-1.43-.68q-2,0-2,2.54v6.11Q16.86,29.72,18.86,29.72Z"/><path class="cls-3" d="M25.34,31.75V20.3h2.45v1a2.46,2.46,0,0,1,.91-.95A2.61,2.61,0,0,1,30.12,20a2.78,2.78,0,0,1,2.06.8A3.32,3.32,0,0,1,33,23.23v8.52H30.4V23.52a1.56,1.56,0,0,0-.31-1,1.12,1.12,0,0,0-.9-.36,1.18,1.18,0,0,0-.92.37,1.49,1.49,0,0,0-.34,1v8.23Z"/></g><g id="Layer_10" data-name="Layer 10"><circle class="cls-4" cx="23.59" cy="77.81" r="21" transform="matrix(1, -0.02, 0.02, 1, -1.21, 0.38)"/><circle class="cls-5" cx="23.59" cy="77.81" r="19.4" transform="translate(-1.21 0.38) rotate(-0.9)"/><circle class="cls-6" cx="30.07" cy="79.34" r="2.53" transform="translate(-1.23 0.48) rotate(-0.89)"/><circle class="cls-6" cx="23.31" cy="79.34" r="2.53" transform="translate(-1.24 0.37) rotate(-0.89)"/><circle class="cls-6" cx="16.72" cy="79.34" r="2.53" transform="translate(-1.24 0.27) rotate(-0.89)"/><circle class="cls-6" cx="29.96" cy="86.61" r="2.53" transform="translate(-1.35 0.48) rotate(-0.89)"/><circle class="cls-6" cx="23.21" cy="86.61" r="2.53" transform="translate(-1.35 0.37) rotate(-0.89)"/><circle class="cls-6" cx="16.62" cy="86.61" r="2.53" transform="translate(-1.35 0.27) rotate(-0.89)"/><circle class="cls-6" cx="30.22" cy="71.77" r="2.53" transform="translate(-1.11 0.48) rotate(-0.89)"/><circle class="cls-6" cx="23.47" cy="71.77" r="2.53" transform="translate(-1.11 0.37) rotate(-0.89)"/><circle class="cls-6" cx="16.88" cy="71.77" r="2.53" transform="translate(-1.12 0.27) rotate(-0.89)"/></g></g></svg>